<svg width="125" height="179" viewBox="0 0 125 179" fill="none" xmlns="http://www.w3.org/2000/svg">
<path d="M24.8301 135.24H29.2101C31.1167 135.24 32.4634 135.413 33.2501 135.76C34.0367 136.093 34.5367 136.7 34.7501 137.58C34.9634 138.46 35.0701 139.973 35.0701 142.12C35.0701 144.267 34.9634 145.78 34.7501 146.66C34.5367 147.54 34.0367 148.153 33.2501 148.5C32.4634 148.833 31.1167 149 29.2101 149H24.8301V135.24ZM28.9301 147.4C30.4901 147.4 31.5367 147.32 32.0701 147.16C32.6167 146.987 32.9701 146.573 33.1301 145.92C33.2901 145.253 33.3701 143.987 33.3701 142.12C33.3701 140.267 33.2834 139.007 33.1101 138.34C32.9501 137.673 32.5967 137.26 32.0501 137.1C31.5167 136.927 30.4767 136.84 28.9301 136.84H26.5501V147.4H28.9301ZM38.2991 136V134.14H40.0191V136H38.2991ZM38.3591 149V138.8H39.9791V149H38.3591ZM46.8173 149.16C46.2706 149.16 45.6506 149.133 44.9573 149.08C44.2639 149.027 43.6506 148.967 43.1173 148.9V147.46C44.4373 147.607 45.6439 147.68 46.7373 147.68C47.4173 147.68 47.9173 147.633 48.2373 147.54C48.5573 147.447 48.7639 147.3 48.8573 147.1C48.9639 146.887 49.0173 146.573 49.0173 146.16C49.0173 145.747 48.9773 145.453 48.8973 145.28C48.8306 145.093 48.7173 144.967 48.5573 144.9C48.3973 144.833 48.1173 144.78 47.7173 144.74L45.0573 144.44C44.4439 144.373 43.9706 144.233 43.6373 144.02C43.3173 143.807 43.0973 143.513 42.9773 143.14C42.8573 142.767 42.7973 142.267 42.7973 141.64C42.7973 140.773 42.9506 140.127 43.2573 139.7C43.5773 139.26 44.0106 138.973 44.5573 138.84C45.1173 138.707 45.8639 138.64 46.7973 138.64C47.3173 138.64 47.8773 138.667 48.4773 138.72C49.0773 138.773 49.5839 138.84 49.9973 138.92V140.36C48.9573 140.2 47.8839 140.12 46.7773 140.12C46.1639 140.12 45.6973 140.153 45.3773 140.22C45.0573 140.273 44.8106 140.407 44.6373 140.62C44.4639 140.82 44.3773 141.14 44.3773 141.58C44.3773 141.967 44.4106 142.247 44.4773 142.42C44.5439 142.593 44.6573 142.713 44.8173 142.78C44.9773 142.847 45.2439 142.9 45.6173 142.94L48.3773 143.26C48.9639 143.327 49.4039 143.44 49.6973 143.6C50.0039 143.747 50.2239 144.013 50.3573 144.4C50.5039 144.787 50.5773 145.36 50.5773 146.12C50.5773 146.96 50.4373 147.6 50.1573 148.04C49.8906 148.48 49.4906 148.78 48.9573 148.94C48.4373 149.087 47.7239 149.16 46.8173 149.16ZM59.8977 148.9C59.5377 148.967 59.0977 149.027 58.5777 149.08C58.0711 149.133 57.5844 149.16 57.1177 149.16C55.8644 149.16 54.9444 148.98 54.3577 148.62C53.7711 148.26 53.3911 147.727 53.2177 147.02C53.0577 146.313 52.9777 145.273 52.9777 143.9C52.9777 142.553 53.0777 141.513 53.2777 140.78C53.4777 140.047 53.8711 139.507 54.4577 139.16C55.0444 138.813 55.9111 138.64 57.0577 138.64C57.5111 138.64 57.9911 138.667 58.4977 138.72C59.0177 138.773 59.4577 138.833 59.8177 138.9V140.34C59.0177 140.193 58.2311 140.12 57.4577 140.12C56.6044 140.12 55.9777 140.22 55.5777 140.42C55.1911 140.62 54.9311 140.973 54.7977 141.48C54.6644 141.987 54.5977 142.793 54.5977 143.9C54.5977 145.02 54.6644 145.84 54.7977 146.36C54.9444 146.867 55.2111 147.213 55.5977 147.4C55.9977 147.587 56.6377 147.68 57.5177 147.68C58.1711 147.68 58.9644 147.613 59.8977 147.48V148.9ZM66.657 149.16C65.2303 149.16 64.2103 149.02 63.597 148.74C62.9836 148.447 62.5903 147.96 62.417 147.28C62.257 146.587 62.177 145.46 62.177 143.9C62.177 142.34 62.257 141.22 62.417 140.54C62.5903 139.847 62.9836 139.36 63.597 139.08C64.2103 138.787 65.2303 138.64 66.657 138.64C68.0703 138.64 69.0836 138.787 69.697 139.08C70.3103 139.36 70.697 139.847 70.857 140.54C71.0303 141.22 71.117 142.34 71.117 143.9C71.117 145.46 71.0303 146.587 70.857 147.28C70.697 147.96 70.3103 148.447 69.697 148.74C69.0836 149.02 68.0703 149.16 66.657 149.16ZM66.657 147.68C67.6303 147.68 68.3036 147.593 68.677 147.42C69.0503 147.247 69.277 146.933 69.357 146.48C69.4503 146.013 69.497 145.153 69.497 143.9C69.497 142.647 69.4503 141.793 69.357 141.34C69.277 140.873 69.0503 140.553 68.677 140.38C68.3036 140.207 67.6303 140.12 66.657 140.12C65.6836 140.12 65.0036 140.207 64.617 140.38C64.2436 140.553 64.0103 140.873 63.917 141.34C63.837 141.793 63.797 142.647 63.797 143.9C63.797 145.153 63.837 146.013 63.917 146.48C64.0103 146.933 64.2436 147.247 64.617 147.42C65.0036 147.593 65.6836 147.68 66.657 147.68ZM76.5246 149L72.7646 138.8H74.4646L77.4846 147.2H77.6246L80.6246 138.8H82.2846L78.5446 149H76.5246ZM92.5348 144.48H85.5548C85.5548 145.453 85.6214 146.147 85.7548 146.56C85.8881 146.973 86.1748 147.267 86.6148 147.44C87.0681 147.6 87.8214 147.68 88.8748 147.68C89.9014 147.68 90.9881 147.607 92.1348 147.46V148.88C91.7081 148.96 91.1548 149.027 90.4748 149.08C89.7948 149.133 89.1481 149.16 88.5348 149.16C87.1614 149.16 86.1481 149 85.4948 148.68C84.8548 148.36 84.4348 147.847 84.2348 147.14C84.0348 146.433 83.9348 145.36 83.9348 143.92C83.9348 142.507 84.0214 141.447 84.1948 140.74C84.3814 140.033 84.7881 139.507 85.4148 139.16C86.0548 138.813 87.0614 138.64 88.4348 138.64C89.7148 138.64 90.6414 138.813 91.2148 139.16C91.7881 139.493 92.1481 140.007 92.2948 140.7C92.4548 141.38 92.5348 142.447 92.5348 143.9V144.48ZM88.3948 140.12C87.5281 140.12 86.9014 140.2 86.5148 140.36C86.1414 140.507 85.8881 140.793 85.7548 141.22C85.6348 141.633 85.5681 142.307 85.5548 143.24H90.9748V143.08C90.9748 142.2 90.8948 141.553 90.7348 141.14C90.5881 140.727 90.3414 140.453 89.9948 140.32C89.6481 140.187 89.1148 140.12 88.3948 140.12ZM95.5662 138.8H97.0062L97.0862 140.74H97.2062C97.4462 139.94 97.8462 139.393 98.4062 139.1C98.9662 138.793 99.6995 138.64 100.606 138.64V140.38C99.6862 140.38 98.9795 140.52 98.4862 140.8C97.9928 141.08 97.6528 141.513 97.4662 142.1C97.2795 142.673 97.1862 143.453 97.1862 144.44V149H95.5662V138.8Z" fill="#FAFAFA"/>
<rect x="15" y="14" width="97" height="97" fill="#2A2A2A"/>
<circle cx="61" cy="64" r="31" fill="#2A2A2A"/>
<circle cx="61" cy="63" r="31" fill="url(#paint0_linear)"/>
<path d="M79.338 37.9051C87.0164 43.5574 92 52.6685 92 62.9457C92 80.0965 78.1208 94 61 94C43.8792 94 30 80.0965 30 62.9457C30 50.6564 37.1261 40.0343 47.4648 35" stroke="#FAFAFA" stroke-width="3" stroke-linecap="round" stroke-linejoin="round"/>
<path d="M30.1835 56.5C20.121 60.1167 14.8349 64.1696 15.3759 67.4922C16.3215 73.2999 37.391 74.7021 62.4359 70.6241C87.4807 66.5461 107.017 58.5322 106.071 52.7245C105.519 49.3353 98.5451 47.05 87.496 46.875" stroke="#FAFAFA" stroke-width="2" stroke-linecap="round" stroke-linejoin="round"/>
<path d="M83.1186 66.785C83.3884 66.3031 83.2165 65.6938 82.7346 65.4239L74.8819 61.0268C74.4 60.757 73.7906 60.9289 73.5208 61.4108C73.251 61.8927 73.4229 62.502 73.9048 62.7719L80.885 66.6804L76.9764 73.6606C76.7066 74.1425 76.8785 74.7519 77.3604 75.0217C77.8423 75.2915 78.4517 75.1196 78.7215 74.6378L83.1186 66.785ZM81.9746 65.334C76.0968 66.9921 69.4133 68.4749 62.2752 69.6372L62.5966 71.6112C69.8033 70.4377 76.5611 68.9392 82.5176 67.2589L81.9746 65.334Z" fill="#FAFAFA"/>
<defs>
<linearGradient id="paint0_linear" x1="61" y1="51.5" x2="21" y2="112.5" gradientUnits="userSpaceOnUse">
<stop stop-color="#63EDE4" stop-opacity="0"/>
<stop offset="1" stop-color="#63EDE4"/>
</linearGradient>
</defs>
</svg>
